PathFileType	4	(X/Y/Z)	RBDS021static.trc
DataRate	CameraRate	NumFrames	NumMarkers	Units	OrigDataRate	OrigDataStartFrame	OrigNumFrames
150.000000	150.000000	4	48	mm	150.000000	56	150
Frame#	Time	L.Ankle			L.Ankle.Medial			L.ASIS			L.GTR			L.Heel.Bottom			L.Heel.Lateral			L.Heel.Top			L.HF			L.Iliac.Crest			L.Knee			L.Knee.Medial			L.MT1			L.MT2			L.MT5			L.PSIS			L.Shank.Bottom.Lateral			L.Shank.Bottom.Medial			L.Shank.Top.Lateral			L.Shank.Top.Medial			L.Thigh.Bottom.Lateral			L.Thigh.Bottom.Medial			L.Thigh.Top.Lateral			L.Thigh.Top.Medial			L.TT			R.Ankle			R.Ankle.Medial			R.ASIS			R.GTR			R.Heel.Bottom			R.Heel.Lateral			R.Heel.Top			R.HF			R.Iliac.Crest			R.Knee			R.Knee.Medial			R.MT1			R.MT2			R.MT5			R.PSIS			R.Shank.Bottom.Lateral			R.Shank.Bottom.Medial			R.Shank.Top.Lateral			R.Shank.Top.Medial			R.Thigh.Bottom.Lateral			R.Thigh.Bottom.Medial			R.Thigh.Top.Lateral			R.Thigh.Top.Medial			R.TT			
		X1	Y1	Z1	X2	Y2	Z2	X3	Y3	Z3	X4	Y4	Z4	X5	Y5	Z5	X6	Y6	Z6	X7	Y7	Z7	X8	Y8	Z8	X9	Y9	Z9	X10	Y10	Z10	X11	Y11	Z11	X12	Y12	Z12	X13	Y13	Z13	X14	Y14	Z14	X15	Y15	Z15	X16	Y16	Z16	X17	Y17	Z17	X18	Y18	Z18	X19	Y19	Z19	X20	Y20	Z20	X21	Y21	Z21	X22	Y22	Z22	X23	Y23	Z23	X24	Y24	Z24	X25	Y25	Z25	X26	Y26	Z26	X27	Y27	Z27	X28	Y28	Z28	X29	Y29	Z29	X30	Y30	Z30	X31	Y31	Z31	X32	Y32	Z32	X33	Y33	Z33	X34	Y34	Z34	X35	Y35	Z35	X36	Y36	Z36	X37	Y37	Z37	X38	Y38	Z38	X39	Y39	Z39	X40	Y40	Z40	X41	Y41	Z41	X42	Y42	Z42	X43	Y43	Z43	X44	Y44	Z44	X45	Y45	Z45	X46	Y46	Z46	X47	Y47	Z47	X48	Y48	Z48	

57	0.3733333333333334	713.3449096679688	110.8964080810547	1037.748657226563	729.800048828125	122.4816665649414	1118.885864257813	864.5413818359375	1002.805908203125	1113.29248046875	789.0689086914063	920.49169921875	1038.593872070313	635.97021484375	40.14234924316406	1086.023193359375	665.52880859375	61.44696807861328	1041.315185546875	645.6997680664063	86.83805847167969	1085.989501953125	734.07958984375	455.2850341796875	1020.101745605469	777.7000122070313	1061.996215820313	1062.598266601563	754.1525268554688	533.1131591796875	1027.951538085938	726.3317260742188	504.1569213867188	1155.733764648438	851.764892578125	57.23831558227539	1126.750732421875	863.93896484375	62.52111053466797	1082.434204101563	821.5125732421875	47.72365188598633	1012.869323730469	680.5165405273438	1023.106506347656	1189.847290039063	711.0071411132813	183.2352752685547	1028.75634765625	668.8223876953125	186.7837829589844	1064.577270507813	704.9818725585938	262.4845886230469	1014.967041015625	663.7546997070313	266.3766174316406	1049.449829101563	762.2907104492188	657.58935546875	1021.731567382813	699.8138427734375	668.3894653320313	1054.987670898438	774.519287109375	766.834716796875	1014.627380371094	714.8737182617188	777.4479370117188	1046.885864257813	789.0186767578125	437.9021606445313	1074.220581054688	707.1638793945313	103.2330627441406	1422.378295898438	731.7514038085938	124.404899597168	1341.329833984375	865.9320678710938	1004.62646484375	1337.581909179688	793.6045532226563	919.35302734375	1409.623901367188	635.091796875	40.56471633911133	1372.269897460938	662.7857055664063	59.54528045654297	1417.441284179688	643.6514892578125	85.06461334228516	1372.880615234375	738.9209594726563	461.6326904296875	1432.024291992188	796.0711059570313	1059.969848632813	1384.638305664063	756.5571899414063	534.8009643554688	1419.359252929688	748.71923828125	507.3213806152344	1286.904052734375	845.0701904296875	58.04485321044922	1333.593139648438	860.2047119140625	68.16590118408203	1384.914184570313	823.0726928710938	50.48719024658203	1446.070190429688	679.7182006835938	1014.3369140625	1266.808471679688	694.3997802734375	186.7263946533203	1426.487915039063	664.49267578125	193.930419921875	1385.482421875	694.9437866210938	270.8663940429688	1439.311157226563	660.62890625	273.6192321777344	1398.248046875	765.0420532226563	662.8546752929688	1426.041870117188	701.25439453125	665.672119140625	1388.412109375	766.089111328125	772.433349609375	1425.583251953125	707.3262939453125	774.9011840820313	1387.484741210938	796.1304321289063	435.264404296875	1374.8369140625	
58	0.38	713.3422241210938	110.9091186523438	1037.74267578125	729.7969360351563	122.4833602905273	1118.888549804688	864.5250244140625	1002.803771972656	1113.268920898438	789.0704956054688	920.4920043945313	1038.595703125	635.96728515625	40.14042663574219	1086.028686523438	665.5267333984375	61.44333648681641	1041.322998046875	645.6897583007813	86.84928894042969	1085.984741210938	734.0692749023438	455.28564453125	1020.080505371094	777.6953735351563	1062	1062.59765625	754.1369018554688	533.1251831054688	1027.936645507813	726.3368530273438	504.1520385742188	1155.714477539063	851.7554931640625	57.23722076416016	1126.755615234375	863.9429931640625	62.53904724121094	1082.416748046875	821.511474609375	47.72870635986328	1012.866821289063	680.5286254882813	1023.103210449219	1189.871215820313	711.0125122070313	183.2319183349609	1028.759521484375	668.8235473632813	186.7904663085938	1064.574951171875	704.9765625	262.479248046875	1014.97216796875	663.7554321289063	266.3692932128906	1049.457397460938	762.2932739257813	657.590087890625	1021.739318847656	699.8052368164063	668.3953857421875	1055.002075195313	774.5096435546875	766.8350830078125	1014.628601074219	714.8721923828125	777.4574584960938	1046.90087890625	789.0247192382813	437.9035339355469	1074.212158203125	707.1679077148438	103.2436294555664	1422.370849609375	731.7539672851563	124.4061584472656	1341.333862304688	865.9703979492188	1004.619812011719	1337.563598632813	793.6430053710938	919.35107421875	1409.624267578125	635.0880126953125	40.5680046081543	1372.275146484375	662.7823486328125	59.54774856567383	1417.447998046875	643.6515502929688	85.06783294677734	1372.8818359375	738.9461059570313	461.628662109375	1432.030517578125	796.0966186523438	1059.951293945313	1384.636108398438	756.591796875	534.7892456054688	1419.359985351563	748.7229614257813	507.3180541992188	1286.907836914063	845.0693359375	58.045166015625	1333.59765625	860.2057495117188	68.16982269287109	1384.926391601563	823.0581665039063	50.4896354675293	1446.086059570313	679.734375	1014.330688476563	1266.810791015625	694.4067993164063	186.7296752929688	1426.503540039063	664.5062866210938	193.9340209960938	1385.478637695313	694.963134765625	270.8607482910156	1439.314697265625	660.6395263671875	273.6276550292969	1398.251708984375	765.0684814453125	662.8568725585938	1426.04296875	701.2969970703125	665.6796875	1388.41845703125	766.1281127929688	772.4367065429688	1425.581787109375	707.3592529296875	774.902587890625	1387.498291015625	796.1581420898438	435.2718505859375	1374.854125976563	
59	0.3866666666666667	713.336669921875	110.9077453613281	1037.745483398438	729.798828125	122.4823760986328	1118.88232421875	864.5310668945313	1002.804321289063	1113.276733398438	789.068359375	920.502197265625	1038.589477539063	635.9671630859375	40.14578247070313	1086.018676757813	665.5264282226563	61.43583297729492	1041.3154296875	645.6945190429688	86.84052276611328	1085.99560546875	734.0565795898438	455.2857055664063	1020.087646484375	777.6795654296875	1062.0009765625	1062.607666015625	754.1375732421875	533.1275634765625	1027.930541992188	726.3370361328125	504.1526184082031	1155.72021484375	851.7586669921875	57.24208831787109	1126.74658203125	863.9322509765625	62.53782272338867	1082.416748046875	821.4989013671875	47.72968673706055	1012.857849121094	680.5360717773438	1023.093627929688	1189.887939453125	711.0040893554688	183.2424621582031	1028.748901367188	668.8163452148438	186.7840423583984	1064.578979492188	704.9713745117188	262.4851989746094	1014.962280273438	663.7433471679688	266.3736267089844	1049.456420898438	762.28076171875	657.5971069335938	1021.736694335938	699.7997436523438	668.4030151367188	1055.00341796875	774.4988403320313	766.8391723632813	1014.625	714.8571166992188	777.4607543945313	1046.894653320313	789.01171875	437.910400390625	1074.199462890625	707.1724853515625	103.2359771728516	1422.369750976563	731.7571411132813	124.4229507446289	1341.322875976563	865.9973754882813	1004.616577148438	1337.569213867188	793.6767578125	919.348876953125	1409.619140625	635.0877685546875	40.57177352905273	1372.266723632813	662.7847290039063	59.54783248901367	1417.439453125	643.6585693359375	85.06629943847656	1372.874389648438	738.974365234375	461.6309204101563	1432.036010742188	796.10986328125	1059.941528320313	1384.64404296875	756.614501953125	534.7935791015625	1419.364013671875	748.751220703125	507.3263854980469	1286.904541015625	845.0578002929688	58.07717132568359	1333.575805664063	860.2061157226563	68.17387390136719	1384.9033203125	823.0626220703125	50.48654556274414	1446.069458007813	679.7518920898438	1014.341552734375	1266.83935546875	694.4191284179688	186.7308959960938	1426.49755859375	664.5150146484375	193.9375152587891	1385.4951171875	694.9826049804688	270.8644104003906	1439.30908203125	660.6541748046875	273.6333312988281	1398.260131835938	765.1199340820313	662.8621215820313	1426.039916992188	701.3313598632813	665.6766357421875	1388.430908203125	766.1676025390625	772.4326171875	1425.577880859375	707.3988037109375	774.9052734375	1387.499389648438	796.1802368164063	435.2527770996094	1374.822143554688	
60	0.3933333333333334	713.3326416015625	110.9060211181641	1037.744750976563	729.8045043945313	122.4729461669922	1118.868041992188	864.5222778320313	1002.81005859375	1113.260375976563	789.03857421875	920.5030517578125	1038.5947265625	635.973876953125	40.13531875610352	1086.025390625	665.5203247070313	61.44613647460938	1041.306274414063	645.6911010742188	86.83439636230469	1085.99169921875	734.047607421875	455.2890319824219	1020.0947265625	777.6727294921875	1061.999267578125	1062.620971679688	754.1209106445313	533.133056640625	1027.920532226563	726.3276977539063	504.1714172363281	1155.713012695313	851.7653198242188	57.23826599121094	1126.734008789063	863.9400024414063	62.54308319091797	1082.402221679688	821.5003051757813	47.73352432250977	1012.852355957031	680.5458374023438	1023.079833984375	1189.926513671875	710.993896484375	183.2329559326172	1028.749389648438	668.8206176757813	186.7760314941406	1064.588012695313	704.9630126953125	262.4912414550781	1014.970520019531	663.7500610351563	266.3695373535156	1049.465454101563	762.28271484375	657.595458984375	1021.732666015625	699.7992553710938	668.4039916992188	1055.020751953125	774.4905395507813	766.8402709960938	1014.630615234375	714.8621215820313	777.4630126953125	1046.915649414063	789.003173828125	437.9070129394531	1074.192626953125	707.1693115234375	103.2367477416992	1422.370361328125	731.7435913085938	124.4268264770508	1341.325805664063	866.0319213867188	1004.619201660156	1337.566650390625	793.7000122070313	919.34423828125	1409.6259765625	635.089111328125	40.56455993652344	1372.277221679688	662.791015625	59.55519485473633	1417.452514648438	643.6463623046875	85.06855773925781	1372.872314453125	738.9871215820313	461.6339416503906	1432.036254882813	796.1446533203125	1059.931030273438	1384.648193359375	756.6495971679688	534.7933349609375	1419.3544921875	748.7642822265625	507.3304443359375	1286.906127929688	845.0780639648438	58.04445648193359	1333.583740234375	860.2193603515625	68.16450500488281	1384.897094726563	823.0621337890625	50.48769378662109	1446.069091796875	679.78076171875	1014.335815429688	1266.861572265625	694.4303588867188	186.7242736816406	1426.499755859375	664.5242309570313	193.9465026855469	1385.507690429688	694.9971923828125	270.8629150390625	1439.310668945313	660.67724609375	273.6262512207031	1398.263671875	765.153076171875	662.854736328125	1426.0400390625	701.3681640625	665.6778564453125	1388.434326171875	766.218994140625	772.42236328125	1425.589599609375	707.432861328125	774.9072265625	1387.529907226563	796.2028198242188	435.2640380859375	1374.8251953125	
